<svg xmlns="http://www.w3.org/2000/svg" width="150" height="36.73" overflow="visible"><path fill="#ea1f27" d="M0 36.73l4.87-10.04 6.14-.97-.97 6.14z"/><path fill="#f9ce09" d="M5.94 30.69l2.94-6.07 4.4-1.58-1.27 4.71z"/><path d="M22.28 35.31l3.24-12.08c.94-.77 1.86-1.61 2.77-2.52 7.26-7.26 10.38-15.91 6.96-19.32s-12.07-.3-19.32 6.96c-.96.96-1.84 1.94-2.65 2.93L1.42 14.45 7.96 21c-.72 2.83-.45 5.22 1 6.67s3.84 1.72 6.67 1l6.65 6.64z" fill="#9fd1ff"/><path d="M25.52 23.23c.94-.77 1.86-1.61 2.77-2.52 7.22-7.22 10.34-15.83 7.01-19.27L9.01 27.72c1.45 1.41 3.83 1.67 6.62.95l6.64 6.64 3.25-12.08z" fill="#0f93ed"/><circle cx="24.86" cy="11.94" r="3.57" fill="#171763"/><path d="M15.73 28.76l6.55 6.55 3.24-12.08c.94-.77 1.86-1.61 2.77-2.52 7.16-7.16 10.29-15.67 7.09-19.18-.53 5.23-6.01 14.02-14.35 22.36a83.764 83.764 0 01-5.3 4.87z" fill="#0071ce"/><path fill="#ffffff" d="M28.22 8.57a4.756 4.756 0 00-6.73 0 4.756 4.756 0 000 6.73 4.756 4.756 0 006.73 0 4.756 4.756 0 000-6.73zm-.84 5.89a3.567 3.567 0 01-5.04 0 3.567 3.567 0 010-5.04 3.567 3.567 0 015.04 0 3.567 3.567 0 010 5.04z"/><ellipse transform="rotate(-45.001 26.107 12.875)" fill="#ffffff" cx="26.11" cy="12.87" rx="1.62" ry=".7"/><path fill="#171b1e" d="M49.81 9.05h4.02V20.3c0 3.55-2.17 5.44-5.44 5.44-3.39 0-5.76-1.98-5.76-5.69h4c0 1.41.61 2.09 1.65 2.09.96 0 1.53-.61 1.53-1.84V9.05zM62.43 25.76c-3.51 0-5.86-1.95-6.05-4.49h3.98c.09.92.92 1.53 2.02 1.53 1.04 0 1.58-.47 1.58-1.06 0-2.12-7.15-.59-7.15-5.41 0-2.24 1.91-4.07 5.34-4.07 3.39 0 5.27 1.88 5.53 4.47h-3.72c-.12-.89-.8-1.48-1.93-1.48-.94 0-1.46.38-1.46 1.01 0 2.09 7.11.61 7.18 5.51-.01 2.27-2.03 3.99-5.32 3.99zM76.19 25.76c-3.86 0-6.78-2.59-6.78-6.75 0-4.17 2.99-6.75 6.82-6.75 3.86 0 6.82 2.59 6.82 6.75.01 4.16-3 6.75-6.86 6.75zm0-3.49c1.44 0 2.78-1.06 2.78-3.27 0-2.24-1.32-3.27-2.73-3.27-1.46 0-2.73 1.04-2.73 3.27 0 2.21 1.22 3.27 2.68 3.27zM94.26 18.44c0-1.79-.99-2.78-2.52-2.78s-2.52.99-2.52 2.78v7.13H85.2V12.44h4.02v1.74c.8-1.11 2.21-1.88 3.98-1.88 3.04 0 5.06 2.07 5.06 5.6v7.67h-4v-7.13zM102.94 25.76c-1.44 0-2.4-.96-2.4-2.16 0-1.25.96-2.21 2.4-2.21 1.41 0 2.38.96 2.38 2.21 0 1.19-.97 2.16-2.38 2.16zM122.47 9.05v16.52h-4.02l-6.73-10.19v10.19h-4.02V9.05h4.02l6.73 10.24V9.05h4.02zM135.51 12.27h-6.09v3.34h5.39v3.11h-5.39v3.62h6.09v3.22h-10.12V9.05h10.12v3.22zM137.22 9.05H150v3.22h-4.38v13.29h-4.02V12.27h-4.38V9.05z"/></svg>